<?xml version="1.0" standalone="no"?>
<!DOCTYPE svg PUBLIC "-//W3C//DTD SVG 20010904//EN"
 "http://www.w3.org/TR/2001/REC-SVG-20010904/DTD/svg10.dtd">
<svg version="1.0" xmlns="http://www.w3.org/2000/svg"
 width="300.000000pt" height="169.000000pt" viewBox="0 0 300.000000 169.000000"
 preserveAspectRatio="xMidYMid meet">
<metadata>
Created by potrace 1.10, written by Peter Selinger 2001-2011
</metadata>
<g transform="translate(0.000000,169.000000) scale(0.100000,-0.100000)"
fill="#000000" stroke="none">
<path d="M725 835 c0 -645 3 -815 13 -815 9 0 12 170 12 815 0 645 -3 815 -12
815 -10 0 -13 -170 -13 -815z"/>
<path d="M354 1318 c-57 -68 -102 -200 -140 -408 -21 -113 -21 -195 1 -260 16
-48 67 -110 91 -110 11 0 14 -18 14 -77 1 -100 10 -113 83 -113 65 0 67 3 67
105 l0 73 38 19 c87 42 110 159 75 369 -43 257 -122 434 -191 434 -6 0 -23
-15 -38 -32z m85 -25 c43 -52 87 -181 116 -339 14 -75 25 -137 25 -140 0 -2
-81 -4 -180 -4 l-181 0 5 33 c3 17 11 61 16 97 16 98 57 244 81 292 21 43 66
98 80 98 4 0 21 -17 38 -37z m143 -545 c-4 -73 -24 -128 -57 -164 -32 -33 -34
-34 -114 -34 -106 0 -135 15 -166 83 -13 29 -26 77 -29 107 l-7 55 188 -2 188
-3 -3 -42z m-154 -225 c-21 -2 -38 -8 -38 -13 0 -5 13 -7 29 -4 16 4 32 1 35
-5 5 -8 -12 -11 -53 -11 -54 0 -61 2 -61 20 0 18 6 20 63 18 41 -1 50 -3 25
-5z m18 -61 c-15 -3 -16 -6 -5 -13 12 -7 12 -9 -1 -9 -13 0 -13 -1 0 -11 11
-8 12 -12 3 -16 -7 -2 -13 -9 -13 -14 0 -6 5 -7 11 -3 7 4 10 0 7 -11 -2 -14
-13 -18 -46 -18 -48 0 -62 12 -62 56 0 21 5 27 23 27 12 0 18 -4 12 -8 -5 -4
-11 -17 -12 -29 -2 -16 3 -23 15 -23 15 0 18 8 18 35 -1 31 -4 35 -28 35 -16
0 -28 3 -28 8 0 4 28 5 62 3 35 -2 54 -6 44 -9z"/>
<path d="M945 1137 c-3 -7 -4 -129 -3 -272 l3 -260 505 0 505 0 3 273 2 272
-505 0 c-399 0 -507 -3 -510 -13z m995 -257 l0 -260 -490 0 -490 0 0 260 0
260 490 0 490 0 0 -260z"/>
<path d="M1997 1043 c-4 -3 -7 -78 -7 -165 l0 -158 408 2 407 3 0 145 c1 80
-3 153 -7 163 -8 16 -37 17 -402 17 -216 0 -396 -3 -399 -7z m793 -158 l0
-145 -395 0 -395 0 0 145 0 145 395 0 395 0 0 -145z"/>
</g>
</svg>
