<?xml version="1.0" standalone="no"?>
<!DOCTYPE svg PUBLIC "-//W3C//DTD SVG 20010904//EN"
 "http://www.w3.org/TR/2001/REC-SVG-20010904/DTD/svg10.dtd">
<svg version="1.0" xmlns="http://www.w3.org/2000/svg"
 width="1500.000000pt" height="1500.000000pt" viewBox="0 0 1500.000000 1500.000000"
 preserveAspectRatio="xMidYMid meet">

<g transform="translate(0.000000,1500.000000) scale(0.100000,-0.100000)"
fill="#000000" stroke="none">
<path d="M7195 14433 c-1076 -91 -2030 -601 -2709 -1450 -431 -538 -701 -1182
-798 -1903 -30 -223 -32 -698 -5 -920 69 -555 246 -1075 521 -1534 85 -142
112 -175 155 -195 l36 -16 0 -75 0 -75 131 -260 c517 -1021 833 -1945 968
-2825 55 -362 60 -433 61 -930 l1 -465 26 -51 c40 -77 109 -131 203 -160 25
-7 39 -17 36 -25 -22 -75 -31 -120 -31 -154 0 -57 26 -152 56 -203 l25 -42
-36 -73 c-60 -122 -56 -260 11 -374 l25 -43 -25 -43 c-67 -114 -71 -252 -11
-373 l35 -71 -30 -59 c-63 -121 -62 -259 0 -373 l30 -54 -30 -61 c-79 -160
-56 -334 61 -460 44 -49 131 -99 201 -116 l46 -12 4 -96 c3 -83 7 -106 34
-162 39 -83 111 -155 194 -194 l65 -31 1055 0 1055 0 60 24 c44 18 78 42 126
90 83 83 110 147 117 276 5 91 11 105 47 105 39 0 142 58 192 108 124 124 152
312 69 468 -29 55 -31 64 -18 80 25 34 52 104 61 165 13 80 -1 159 -43 241
-19 38 -30 71 -25 74 19 11 51 88 65 155 18 88 7 169 -36 256 l-31 63 31 63
c43 87 54 168 36 256 -14 67 -46 144 -65 155 -5 3 6 36 25 74 19 37 39 93 44
124 9 58 0 151 -20 204 -13 34 -13 34 13 34 39 0 126 48 171 95 27 28 53 68
66 103 22 56 22 61 10 307 -44 940 184 2013 672 3165 91 215 188 422 336 720
l157 315 0 72 c0 73 0 73 31 83 43 15 60 36 156 195 292 489 468 1020 530
1605 16 150 16 593 0 740 -83 762 -362 1439 -839 2035 -111 139 -370 404 -514
526 -595 505 -1313 811 -2094 894 -126 13 -567 19 -690 8z m764 -258 c401 -56
742 -158 1086 -324 929 -448 1637 -1279 1919 -2251 281 -970 142 -2017 -381
-2870 l-40 -65 -3037 -3 -3036 -2 -44 68 c-62 95 -176 315 -235 454 -320 747
-377 1592 -161 2383 302 1101 1146 2020 2221 2415 301 111 602 177 974 214
102 10 625 -3 734 -19z m2395 -5780 c14 -13 26 -30 26 -38 0 -8 -60 -133 -133
-278 -349 -696 -599 -1327 -776 -1962 -202 -725 -294 -1440 -263 -2037 l12
-225 -30 -27 -30 -28 -1651 0 c-1459 0 -1653 2 -1679 15 -17 9 -30 21 -31 28
0 6 -2 210 -3 452 -2 456 -7 535 -57 875 -130 895 -452 1854 -971 2891 -76
152 -138 284 -138 293 0 9 11 28 25 41 l24 25 2824 0 2824 0 27 -25z m-1467
-4861 c50 -24 83 -78 83 -137 0 -60 -18 -96 -69 -136 l-39 -31 -601 0 c-636 0
-648 -1 -665 -45 -12 -32 -6 -71 14 -93 l21 -22 610 0 609 0 40 -26 c54 -36
80 -80 80 -138 0 -60 -20 -99 -72 -136 l-41 -30 -609 0 -609 0 -24 -25 c-16
-15 -25 -36 -25 -55 0 -19 9 -40 25 -55 l24 -25 609 0 609 0 41 -30 c52 -37
72 -76 72 -136 0 -58 -26 -102 -80 -138 l-40 -26 -603 0 c-596 0 -605 0 -631
-21 -35 -28 -36 -80 -1 -114 l24 -25 612 0 611 0 39 -31 c55 -43 72 -81 67
-144 -5 -58 -23 -87 -80 -127 l-38 -28 -606 0 -605 0 -24 -25 c-16 -15 -25
-36 -25 -55 0 -19 9 -40 25 -55 l24 -25 614 0 613 0 41 -35 c50 -43 67 -82 61
-144 -5 -53 -28 -90 -73 -118 -28 -17 -71 -18 -648 -23 l-619 -5 -19 -24 c-25
-31 -24 -79 3 -108 l21 -23 495 0 494 0 -4 -113 c-3 -107 -5 -116 -32 -151
-53 -70 11 -67 -1095 -64 -996 3 -1000 3 -1028 24 -61 46 -73 77 -73 195 l0
109 127 0 c116 0 129 2 150 22 29 27 30 77 4 109 -19 24 -21 24 -273 29 -230
5 -256 7 -288 25 -38 22 -80 93 -80 134 0 42 39 107 80 135 l40 26 245 0 246
0 24 25 c16 15 25 36 25 55 0 19 -9 40 -25 55 l-24 25 -241 0 -241 0 -46 31
c-58 40 -88 102 -78 162 6 32 18 53 56 90 l49 47 250 0 251 0 24 25 c33 32 33
78 0 110 l-24 25 -247 0 -246 0 -40 32 c-53 42 -82 105 -73 160 6 32 19 53 57
90 l49 48 250 0 250 0 24 25 c16 15 25 36 25 55 0 19 -9 40 -25 55 l-24 25
-249 0 -250 0 -50 48 c-39 37 -51 56 -57 89 -9 58 20 122 76 162 l42 31 245 0
c239 0 246 1 269 22 13 12 23 33 23 49 0 83 -20 89 -308 89 l-239 0 -46 41
c-74 64 -84 149 -27 221 48 61 -45 58 1433 58 1231 0 1352 -1 1384 -16z"/>
</g>
</svg>
