<?xml version="1.0" standalone="no"?>
<!DOCTYPE svg PUBLIC "-//W3C//DTD SVG 20010904//EN"
 "http://www.w3.org/TR/2001/REC-SVG-20010904/DTD/svg10.dtd">
<svg version="1.0" xmlns="http://www.w3.org/2000/svg"
 width="202.000000pt" height="357.000000pt" viewBox="0 0 202.000000 357.000000"
 preserveAspectRatio="xMidYMid meet">

<g transform="translate(0.000000,357.000000) scale(0.100000,-0.100000)"
fill="#000000" stroke="none">
<path d="M895 3464 c-120 -29 -161 -43 -225 -77 -116 -61 -172 -109 -270 -227
-181 -217 -214 -525 -89 -829 21 -51 49 -110 62 -130 34 -51 121 -244 145
-321 25 -79 39 -158 47 -270 6 -81 16 -131 35 -175 5 -11 10 -46 13 -78 3 -48
9 -63 35 -90 17 -18 34 -46 38 -62 7 -37 -10 -85 -30 -85 -25 0 -46 -42 -46
-90 0 -68 9 -89 39 -97 25 -6 37 -14 129 -88 62 -50 75 -54 215 -61 148 -7
168 -2 229 59 15 15 41 30 58 33 16 4 36 17 44 29 9 13 29 26 46 30 l30 7 0
78 c0 85 -9 100 -60 100 -19 0 -20 4 -15 38 12 71 15 79 45 117 24 30 30 47
30 85 0 27 9 77 20 112 11 34 25 109 30 165 13 131 24 186 54 275 25 76 99
233 141 303 130 213 165 505 88 725 -22 66 -70 163 -90 185 -10 11 -36 43 -57
72 -70 93 -242 206 -374 244 -65 19 -271 34 -317 23z m235 -93 c52 -7 150 -44
248 -94 41 -22 98 -73 167 -151 52 -59 115 -198 136 -301 23 -110 24 -181 4
-277 -26 -122 -36 -148 -64 -162 -20 -10 -160 -12 -617 -11 -527 1 -594 2
-616 17 -19 13 -29 35 -45 105 -48 200 -36 332 45 493 39 79 63 110 142 190
83 84 107 102 192 143 53 26 112 48 130 48 18 1 47 5 63 10 30 8 115 4 215
-10z m458 -1098 c-17 -32 -39 -69 -49 -83 -33 -49 -108 -237 -134 -335 -14
-55 -31 -154 -37 -220 -6 -66 -17 -132 -24 -147 l-15 -28 -323 0 -323 0 -12
28 c-7 15 -17 72 -23 127 -16 169 -60 354 -104 435 -7 14 -25 50 -39 81 -14
31 -34 67 -43 80 -18 23 -62 105 -62 114 0 3 275 5 610 5 l610 0 -32 -57z
m-275 -887 c11 -27 -12 -83 -36 -90 -12 -3 -134 -6 -272 -6 -290 0 -298 2
-303 68 l-3 42 304 0 c255 0 306 -2 310 -14z m-63 -296 l0 -140 -240 0 -240 0
0 140 0 140 240 0 240 0 0 -140z m-113 -204 c-41 -31 -213 -31 -254 0 -16 12
1 13 127 13 125 0 143 -2 127 -13z"/>
</g>
</svg>
