<?xml version="1.0" standalone="no"?>
<!DOCTYPE svg PUBLIC "-//W3C//DTD SVG 20010904//EN"
 "http://www.w3.org/TR/2001/REC-SVG-20010904/DTD/svg10.dtd">
<svg version="1.0" xmlns="http://www.w3.org/2000/svg"
 width="608.000000pt" height="392.000000pt" viewBox="0 0 608.000000 392.000000"
 preserveAspectRatio="xMidYMid meet">

<g transform="translate(0.000000,392.000000) scale(0.100000,-0.100000)"
fill="#000000" stroke="none">
<path d="M803 3553 c-17 -2 -37 -11 -43 -19 -7 -8 -21 -14 -31 -14 -10 0 -21
-4 -24 -10 -3 -5 -17 -10 -31 -10 -13 0 -36 -13 -51 -28 -16 -16 -43 -38 -60
-51 -18 -12 -33 -28 -33 -34 0 -7 -14 -23 -30 -36 -17 -13 -30 -31 -30 -41 0
-20 -31 -80 -41 -80 -4 0 -17 -33 -29 -72 -12 -40 -28 -84 -34 -97 -16 -35
-15 -313 2 -319 6 -2 12 -16 12 -30 0 -45 62 -192 81 -192 5 0 9 -15 9 -34 0
-18 9 -58 21 -87 31 -79 34 -88 59 -159 12 -36 24 -78 27 -95 2 -16 8 -39 13
-50 11 -26 21 -112 29 -255 3 -63 10 -121 15 -128 4 -8 8 -104 8 -214 -1 -184
1 -201 19 -219 10 -10 23 -19 29 -19 5 0 10 -13 10 -30 0 -19 7 -33 19 -40 11
-5 85 -10 169 -10 132 0 151 2 165 18 10 10 17 28 17 39 0 12 6 23 13 26 24 9
46 68 35 92 -7 15 -7 29 0 42 6 10 7 25 3 32 -4 6 -6 42 -4 79 2 37 4 74 3 82
-5 74 4 120 24 120 11 0 15 38 19 188 4 148 9 202 25 257 27 91 52 162 69 194
7 15 13 34 13 43 0 10 11 37 25 62 13 24 27 62 31 85 4 22 13 46 20 52 8 6 14
22 14 34 0 12 6 28 14 34 30 25 45 281 23 386 -14 63 -66 207 -89 245 -5 8
-11 22 -14 31 -3 9 -17 22 -30 28 -13 6 -24 16 -24 23 0 18 -111 117 -140 125
-14 3 -47 17 -75 30 -50 25 -152 37 -222 26z m263 -85 c35 -18 64 -36 64 -40
0 -5 7 -8 15 -8 8 0 15 -4 15 -9 0 -7 30 -40 72 -78 22 -21 38 -42 38 -52 0
-5 11 -22 24 -38 14 -17 29 -53 35 -88 6 -32 15 -61 20 -64 4 -3 11 -26 14
-51 3 -25 9 -69 13 -98 8 -60 -11 -212 -33 -254 -7 -15 -13 -39 -13 -53 0 -15
-5 -35 -10 -46 -10 -18 -26 -19 -427 -19 -413 0 -416 0 -434 22 -11 11 -19 31
-19 44 0 13 -6 27 -14 31 -16 9 -25 62 -33 198 -5 106 10 224 34 260 7 11 13
27 13 36 0 9 7 22 15 29 8 7 15 21 15 32 0 24 40 100 60 112 8 5 31 27 50 48
20 21 41 38 48 38 6 0 12 6 12 13 0 6 28 24 63 39 56 25 74 27 181 28 115 0
121 -1 182 -32z m202 -988 c-6 -22 -14 -40 -18 -40 -4 0 -13 -19 -20 -42 -7
-24 -16 -52 -20 -63 -28 -68 -50 -151 -50 -188 0 -23 -7 -63 -14 -88 -8 -26
-16 -104 -18 -175 -1 -71 -7 -132 -13 -136 -5 -4 -115 -8 -242 -8 l-233 0 0
143 c-1 89 -6 168 -16 212 -8 39 -18 85 -21 103 -3 18 -9 35 -14 38 -5 3 -9
13 -9 22 -1 9 -9 35 -20 57 -11 22 -19 46 -20 53 0 8 -6 28 -14 45 -8 18 -22
49 -30 70 l-15 37 398 0 399 0 -10 -40z m-188 -820 c0 -19 -7 -20 -95 -20 -77
0 -95 -3 -95 -15 0 -11 19 -15 93 -17 87 -3 92 -4 95 -25 3 -22 1 -23 -76 -23
-44 0 -87 -3 -96 -6 -37 -14 -10 -23 77 -26 91 -3 92 -3 92 -28 0 -24 -2 -25
-89 -30 -57 -3 -91 -9 -93 -17 -3 -9 21 -13 89 -15 85 -3 93 -5 93 -23 0 -18
-8 -20 -92 -23 -70 -2 -93 -6 -93 -16 0 -21 23 -26 112 -26 77 0 79 -1 76 -22
-3 -22 -8 -23 -96 -26 -68 -2 -92 -6 -89 -15 2 -7 30 -13 75 -15 72 -3 83 -10
64 -40 -7 -9 -44 -12 -153 -10 -141 3 -144 4 -147 26 -3 17 2 22 17 22 12 0
21 6 21 15 0 10 -10 15 -34 15 -40 0 -76 28 -54 41 7 5 30 9 51 9 30 0 37 4
37 20 0 16 -7 20 -30 20 -17 0 -39 5 -49 12 -18 11 -18 13 -3 25 9 7 32 13 50
13 47 0 43 28 -4 32 -73 6 -69 58 4 58 22 0 32 5 32 15 0 11 -11 15 -39 15
-47 0 -72 23 -42 39 11 6 33 11 50 11 50 0 40 28 -11 32 -31 2 -44 8 -46 21
-3 16 11 17 197 17 194 0 201 -1 201 -20z"/>
<path d="M2230 2285 l0 -565 885 0 885 0 0 565 0 565 -885 0 -885 0 0 -565z
m1720 0 l0 -515 -835 0 -835 0 0 515 0 515 835 0 835 0 0 -515z"/>
<path d="M4410 2205 l0 -265 605 0 605 0 0 265 0 265 -605 0 -605 0 0 -265z
m1160 0 l0 -215 -555 0 -555 0 0 215 0 215 555 0 555 0 0 -215z"/>
</g>
</svg>
