<?xml version="1.0" encoding="UTF-8"?>
<!DOCTYPE svg PUBLIC "-//W3C//DTD SVG 1.1//EN" "http://www.w3.org/Graphics/SVG/1.1/DTD/svg11.dtd">
<svg xmlns="http://www.w3.org/2000/svg" version="1.1" width="1500px" height="1500px" style="shape-rendering:geometricPrecision; text-rendering:geometricPrecision; image-rendering:optimizeQuality; fill-rule:evenodd; clip-rule:evenodd" xmlns:xlink="http://www.w3.org/1999/xlink">
<g><path style="opacity:0.969" fill="#343433" d="M 739.5,56.5 C 752.552,54.8694 764.885,57.0361 776.5,63C 793.924,75.7564 809.424,90.5897 823,107.5C 847.112,139.359 867.445,173.692 884,210.5C 918.795,290.554 945.795,373.221 965,458.5C 991.138,570.328 1010.47,683.328 1023,797.5C 1029.87,798.038 1033.87,801.705 1035,808.5C 1035.5,859.843 1031.5,910.843 1023,961.5C 1015.5,1007.33 1000.83,1050.66 979,1091.5C 957.902,1128.93 928.069,1157.1 889.5,1176C 878.287,1180.89 866.621,1184.05 854.5,1185.5C 854.667,1210.84 854.5,1236.17 854,1261.5C 853.626,1262.42 853.126,1263.25 852.5,1264C 855.225,1272.23 854.892,1280.39 851.5,1288.5C 855.444,1297.81 855.444,1307.14 851.5,1316.5C 855.444,1325.86 855.444,1335.19 851.5,1344.5C 855.5,1354.17 855.5,1363.83 851.5,1373.5C 856.592,1385.74 855.092,1397.08 847,1407.5C 844.234,1410.09 841.067,1412.09 837.5,1413.5C 836.873,1424.59 832.207,1433.43 823.5,1440C 821.283,1441.28 818.949,1442.28 816.5,1443C 772.167,1443.67 727.833,1443.67 683.5,1443C 669.754,1438.02 663.088,1428.19 663.5,1413.5C 654.087,1410.58 648.254,1404.25 646,1394.5C 644.874,1387.08 645.708,1379.91 648.5,1373C 644.5,1363.67 644.5,1354.33 648.5,1345C 644.524,1335.5 644.524,1326 648.5,1316.5C 644.524,1307 644.524,1297.5 648.5,1288C 646.141,1283.63 645.141,1278.97 645.5,1274C 645.598,1243.88 645.598,1213.71 645.5,1183.5C 607.952,1174.98 576.452,1156.31 551,1127.5C 520.479,1090.8 499.146,1049.13 487,1002.5C 470.743,938.183 463.409,872.85 465,806.5C 466.78,800.888 470.613,798.221 476.5,798.5C 492.725,645.211 522.225,494.544 565,346.5C 583.596,283.317 608.262,222.65 639,164.5C 657.2,130.639 680.367,100.472 708.5,74C 717.414,65.5458 727.747,59.7125 739.5,56.5 Z M 487.5,821.5 C 662.167,821.5 836.833,821.5 1011.5,821.5C 1012.35,886.02 1004.18,949.354 987,1011.5C 976.408,1049.69 958.741,1084.02 934,1114.5C 911.815,1140.34 883.982,1156.51 850.5,1163C 787.167,1163.67 723.833,1163.67 660.5,1163C 619.049,1155.36 585.549,1134.86 560,1101.5C 536.053,1068.93 519.053,1032.93 509,993.5C 494.931,937.047 487.764,879.713 487.5,821.5 Z M 668.5,1186.5 C 722.833,1186.5 777.167,1186.5 831.5,1186.5C 831.5,1193.83 831.5,1201.17 831.5,1208.5C 798.832,1208.33 766.165,1208.5 733.5,1209C 728.465,1212.01 727.298,1216.18 730,1221.5C 730.903,1222.7 732.069,1223.53 733.5,1224C 766.165,1224.5 798.832,1224.67 831.5,1224.5C 831.5,1231.83 831.5,1239.17 831.5,1246.5C 777.167,1246.5 722.833,1246.5 668.5,1246.5C 668.5,1226.5 668.5,1206.5 668.5,1186.5 Z M 670.5,1269.5 C 723.738,1269.17 776.905,1269.5 830,1270.5C 832.035,1274.3 831.202,1277.47 827.5,1280C 819.167,1280.33 810.833,1280.67 802.5,1281C 795.136,1285.69 794.803,1290.69 801.5,1296C 810.167,1296.33 818.833,1296.67 827.5,1297C 832.796,1300.57 832.796,1304.23 827.5,1308C 818.833,1308.33 810.167,1308.67 801.5,1309C 795.337,1313.18 795.004,1317.85 800.5,1323C 809.425,1324.25 818.425,1324.91 827.5,1325C 832.899,1329.42 832.565,1333.42 826.5,1337C 817.833,1337.33 809.167,1337.67 800.5,1338C 795.004,1343.15 795.337,1347.82 801.5,1352C 810.167,1352.33 818.833,1352.67 827.5,1353C 832.833,1357 832.833,1361 827.5,1365C 818.5,1365.33 809.5,1365.67 800.5,1366C 795.004,1371.15 795.337,1375.82 801.5,1380C 809.833,1380.33 818.167,1380.67 826.5,1381C 831.992,1383.94 832.658,1387.61 828.5,1392C 822.125,1391.05 817.292,1393.21 814,1398.5C 813.667,1404.5 813.333,1410.5 813,1416.5C 812.691,1417.77 812.191,1418.93 811.5,1420C 770.262,1420.83 729.096,1420.66 688,1419.5C 687,1412.17 686,1404.83 685,1397.5C 681.544,1393.24 677.044,1391.41 671.5,1392C 667.343,1388.07 667.677,1384.4 672.5,1381C 695.167,1380.67 717.833,1380.33 740.5,1380C 745.818,1375.29 745.818,1370.62 740.5,1366C 717.833,1365.67 695.167,1365.33 672.5,1365C 667.167,1361 667.167,1357 672.5,1353C 695.167,1352.67 717.833,1352.33 740.5,1352C 745.833,1347.33 745.833,1342.67 740.5,1338C 717.833,1337.67 695.167,1337.33 672.5,1337C 667.182,1332.95 667.182,1328.95 672.5,1325C 694.5,1324.67 716.5,1324.33 738.5,1324C 744.098,1321.3 745.598,1317.14 743,1311.5C 742.097,1310.3 740.931,1309.47 739.5,1309C 717.167,1308.67 694.833,1308.33 672.5,1308C 667.702,1304.69 667.369,1301.03 671.5,1297C 694.167,1296.67 716.833,1296.33 739.5,1296C 744.568,1293.02 745.735,1288.85 743,1283.5C 741.581,1282.54 740.081,1281.71 738.5,1281C 716.5,1280.67 694.5,1280.33 672.5,1280C 668.151,1277.09 667.484,1273.59 670.5,1269.5 Z"/></g>
<g><path style="opacity:1" fill="#fefefe" d="M 743.5,78.5 C 749.678,78.1067 755.678,78.9401 761.5,81C 772.879,88.7055 783.379,97.5388 793,107.5C 819.148,137.764 840.815,171.097 858,207.5C 886.161,268.12 908.828,330.787 926,395.5C 960.911,527.801 985.745,661.967 1000.5,798C 833.5,798.5 666.5,798.667 499.5,798.5C 515.394,644.068 545.227,492.401 589,343.5C 605.784,288.139 627.451,234.805 654,183.5C 672.832,147.351 697.332,115.518 727.5,88C 732.434,84.038 737.767,80.8713 743.5,78.5 Z"/></g>
</svg>
