<?xml version="1.0" encoding="UTF-8"?>
<!DOCTYPE svg PUBLIC "-//W3C//DTD SVG 1.1//EN" "http://www.w3.org/Graphics/SVG/1.1/DTD/svg11.dtd">
<svg xmlns="http://www.w3.org/2000/svg" version="1.1" width="1421px" height="2041px" style="shape-rendering:geometricPrecision; text-rendering:geometricPrecision; image-rendering:optimizeQuality; fill-rule:evenodd; clip-rule:evenodd" xmlns:xlink="http://www.w3.org/1999/xlink">
<g><path style="opacity:0.985" fill="#010101" d="M 673.5,413.5 C 801.33,410.829 901.497,461.495 974,565.5C 1033.76,660.394 1049.43,762.06 1021,870.5C 1012.09,899.647 1000.43,927.647 986,954.5C 950.649,1009.54 923.649,1068.54 905,1131.5C 899.515,1151.92 895.182,1172.59 892,1193.5C 889.406,1219.22 886.406,1244.89 883,1270.5C 876.453,1301.02 869.12,1331.36 861,1361.5C 855.498,1383.18 852.165,1405.18 851,1427.5C 850.833,1455.5 850.833,1483.5 851,1511.5C 848.981,1538.07 836.148,1557.24 812.5,1569C 804.422,1571.8 796.422,1574.8 788.5,1578C 780.538,1584.29 772.871,1590.96 765.5,1598C 713.418,1636.86 662.085,1635.86 611.5,1595C 605.779,1589.28 600.113,1583.61 594.5,1578C 553.118,1570.43 531.285,1545.59 529,1503.5C 528.787,1471.34 526.454,1439.34 522,1407.5C 514.154,1361.27 505.154,1315.27 495,1269.5C 492.614,1192.29 475.28,1118.62 443,1048.5C 424.895,1009.62 405.228,971.621 384,934.5C 332.015,829.498 329.015,723.165 375,615.5C 423.661,515.516 501.827,451.349 609.5,423C 630.737,418.182 652.07,415.015 673.5,413.5 Z M 422.5,921.5 C 600.666,920.334 779,920.167 957.5,921C 932.563,970.373 909.396,1020.54 888,1071.5C 875.416,1104.59 866.083,1138.59 860,1173.5C 853.389,1214.83 846.889,1256.16 840.5,1297.5C 743.182,1296.2 645.849,1295.7 548.5,1296C 545.776,1296.27 543.109,1296.77 540.5,1297.5C 538.028,1288.68 536.195,1279.68 535,1270.5C 528.943,1223.49 520.943,1176.83 511,1130.5C 502.443,1097.5 491.11,1065.5 477,1034.5C 458.786,996.742 440.619,959.075 422.5,921.5 Z"/></g>
<g><path style="opacity:1" fill="#fefefe" d="M 668.5,448.5 C 796.776,445.371 894.276,498.038 961,606.5C 1007.56,691.736 1014.56,780.069 982,871.5C 976.319,886.854 965.486,896.021 949.5,899C 776.167,899.667 602.833,899.667 429.5,899C 414.774,895.939 404.607,887.439 399,873.5C 359.977,762.646 375.644,660.313 446,566.5C 503.544,496.306 577.711,456.972 668.5,448.5 Z"/></g>
<g><path style="opacity:1" fill="#fdfdfd" d="M 554.5,1325.5 C 639.834,1325.33 725.167,1325.5 810.5,1326C 813.952,1326.89 816.952,1328.56 819.5,1331C 823.2,1335.04 827.2,1338.7 831.5,1342C 826.973,1346.89 822.807,1352.06 819,1357.5C 816.766,1359.7 814.266,1361.53 811.5,1363C 730.832,1364.95 650.166,1364.95 569.5,1363C 567.004,1361.92 564.67,1360.59 562.5,1359C 556.667,1352.5 550.833,1346 545,1339.5C 544.333,1338.5 544.333,1337.5 545,1336.5C 548.002,1332.67 551.169,1329 554.5,1325.5 Z"/></g>
<g><path style="opacity:1" fill="#fdfdfd" d="M 566.5,1386.5 C 650.169,1386.17 733.836,1386.5 817.5,1387.5C 816.189,1392.89 814.689,1398.23 813,1403.5C 811.601,1404.23 810.101,1404.73 808.5,1405C 743.84,1406.8 679.173,1408.3 614.5,1409.5C 606.128,1409.54 597.794,1409.04 589.5,1408C 581.229,1405.8 572.896,1403.8 564.5,1402C 563.776,1396.75 564.443,1391.58 566.5,1386.5 Z"/></g>
<g><path style="opacity:1" fill="#fcfcfc" d="M 822.5,1446.5 C 736.335,1447.5 650.002,1447.83 563.5,1447.5C 567.819,1443.67 572.819,1440.83 578.5,1439C 598.152,1433.62 618.152,1430.29 638.5,1429C 684.971,1426.06 731.304,1427.4 777.5,1433C 793.281,1435.19 808.281,1439.69 822.5,1446.5 Z"/></g>
<g><path style="opacity:1" fill="#7f7f7f" d="M 822.5,1446.5 C 823.289,1446.78 823.956,1447.28 824.5,1448C 736.763,1448.83 649.763,1448.67 563.5,1447.5C 650.002,1447.83 736.335,1447.5 822.5,1446.5 Z"/></g>
<g><path style="opacity:1" fill="#bebebe" d="M 566.5,1477.5 C 649.332,1476.5 732.332,1476.17 815.5,1476.5C 815.817,1480.7 815.483,1484.7 814.5,1488.5C 814.5,1484.83 814.5,1481.17 814.5,1477.5C 731.833,1477.5 649.167,1477.5 566.5,1477.5 Z"/></g>
<g><path style="opacity:1" fill="#fefefe" d="M 566.5,1477.5 C 649.167,1477.5 731.833,1477.5 814.5,1477.5C 814.5,1481.17 814.5,1484.83 814.5,1488.5C 732.167,1488.5 649.833,1488.5 567.5,1488.5C 566.756,1484.88 566.423,1481.21 566.5,1477.5 Z"/></g>
<g><path style="opacity:1" fill="#fdfdfd" d="M 567.5,1517.5 C 647.999,1516.33 728.666,1516.17 809.5,1517C 805.538,1521.31 800.871,1524.65 795.5,1527C 771.296,1535.82 746.296,1540.49 720.5,1541C 697.5,1541.67 674.5,1541.67 651.5,1541C 628.594,1539.57 606.261,1535.24 584.5,1528C 578.135,1525.49 572.468,1521.99 567.5,1517.5 Z"/></g>
<g><path style="opacity:1" fill="#fcfcfc" d="M 630.5,1562.5 C 669.002,1561.17 707.669,1561.17 746.5,1562.5C 732.211,1580.17 713.544,1588.84 690.5,1588.5C 667.106,1587.47 647.106,1578.8 630.5,1562.5 Z"/></g>
</svg>
