<?xml version="1.0" encoding="UTF-8"?>
<!DOCTYPE svg PUBLIC "-//W3C//DTD SVG 1.1//EN" "http://www.w3.org/Graphics/SVG/1.1/DTD/svg11.dtd">
<svg xmlns="http://www.w3.org/2000/svg" version="1.1" width="1500px" height="1500px" style="shape-rendering:geometricPrecision; text-rendering:geometricPrecision; image-rendering:optimizeQuality; fill-rule:evenodd; clip-rule:evenodd" xmlns:xlink="http://www.w3.org/1999/xlink">
<g><path style="opacity:0.901" fill="#211d1e" d="M 183.5,77.5 C 560.833,77.5 938.167,77.5 1315.5,77.5C 1315.5,91.8333 1315.5,106.167 1315.5,120.5C 1301.17,120.5 1286.83,120.5 1272.5,120.5C 1267.39,196.267 1251.23,269.6 1224,340.5C 1187.05,442.449 1134.72,535.116 1067,618.5C 1056.26,629.24 1046.26,640.573 1037,652.5C 1035.67,830.791 1035.01,1009.12 1035,1187.5C 1033.86,1191.11 1032.19,1194.45 1030,1197.5C 1011.19,1215.97 992.692,1234.81 974.5,1254C 971.341,1257.08 967.675,1259.42 963.5,1261C 956.804,1262.42 950.137,1262.92 943.5,1262.5C 943.5,1284.17 943.5,1305.83 943.5,1327.5C 950.5,1327.5 957.5,1327.5 964.5,1327.5C 964.5,1359.17 964.5,1390.83 964.5,1422.5C 917.5,1422.5 870.5,1422.5 823.5,1422.5C 823.5,1391.17 823.5,1359.83 823.5,1328.5C 830.833,1328.5 838.167,1328.5 845.5,1328.5C 845.5,1306.5 845.5,1284.5 845.5,1262.5C 795.167,1262.5 744.833,1262.5 694.5,1262.5C 694.5,1284.17 694.5,1305.83 694.5,1327.5C 701.833,1327.5 709.167,1327.5 716.5,1327.5C 716.5,1359.17 716.5,1390.83 716.5,1422.5C 669.167,1422.5 621.833,1422.5 574.5,1422.5C 574.5,1391.17 574.5,1359.83 574.5,1328.5C 581.858,1328.58 589.191,1328.25 596.5,1327.5C 596.5,1305.83 596.5,1284.17 596.5,1262.5C 586.011,1263.39 576.678,1260.56 568.5,1254C 545.79,1234.95 522.79,1216.29 499.5,1198C 497.031,1195.56 495.198,1192.73 494,1189.5C 493.667,1014.5 493.333,839.5 493,664.5C 492.036,660.532 489.869,657.365 486.5,655C 454.534,633.371 426.701,607.205 403,576.5C 318.906,461.584 264.239,333.584 239,192.5C 234.986,168.901 231.486,145.234 228.5,121.5C 213.5,121.5 198.5,121.5 183.5,121.5C 183.5,106.833 183.5,92.1667 183.5,77.5 Z M 243.5,121.5 C 581.167,121.5 918.833,121.5 1256.5,121.5C 1250.83,193.528 1235.66,263.528 1211,331.5C 1176.92,425.035 1129.92,511.035 1070,589.5C 1056.13,607.7 1040.96,624.866 1024.5,641C 1023.17,641.667 1021.83,642.333 1020.5,643C 846.167,643.667 671.833,643.667 497.5,643C 476.583,629.434 457.416,613.601 440,595.5C 385.628,531.822 342.628,460.822 311,382.5C 277.08,298.488 254.58,211.488 243.5,121.5 Z M 508.5,662.5 C 678.833,662.5 849.167,662.5 1019.5,662.5C 1019.5,834.833 1019.5,1007.17 1019.5,1179.5C 849.5,1179.5 679.5,1179.5 509.5,1179.5C 509.03,1007.17 508.697,834.834 508.5,662.5 Z M 523.5,1197.5 C 684.666,1196.33 845.999,1196.17 1007.5,1197C 993.167,1212 978.833,1227 964.5,1242C 957.761,1246.73 950.261,1248.56 942,1247.5C 824.504,1246.69 707.004,1246.19 589.5,1246C 584.787,1244.81 580.453,1242.81 576.5,1240C 558.959,1225.62 541.292,1211.45 523.5,1197.5 Z M 613.5,1266.5 C 634.5,1266.5 655.5,1266.5 676.5,1266.5C 676.5,1286.83 676.5,1307.17 676.5,1327.5C 655.5,1327.5 634.5,1327.5 613.5,1327.5C 613.5,1307.17 613.5,1286.83 613.5,1266.5 Z M 590.5,1344.5 C 626.833,1344.5 663.167,1344.5 699.5,1344.5C 699.5,1364.83 699.5,1385.17 699.5,1405.5C 663.167,1405.5 626.833,1405.5 590.5,1405.5C 590.5,1385.17 590.5,1364.83 590.5,1344.5 Z M 839.5,1344.5 C 875.833,1344.5 912.167,1344.5 948.5,1344.5C 948.5,1364.83 948.5,1385.17 948.5,1405.5C 912.167,1405.5 875.833,1405.5 839.5,1405.5C 839.5,1385.17 839.5,1364.83 839.5,1344.5 Z"/></g>
<g><path style="opacity:1" fill="#191616" d="M 187.5,81.5 C 562.333,80.5001 937.333,80.1668 1312.5,80.5C 1312.5,92.8333 1312.5,105.167 1312.5,117.5C 1298.17,117.5 1283.83,117.5 1269.5,117.5C 1283.32,116.504 1297.32,116.171 1311.5,116.5C 1311.5,104.833 1311.5,93.1667 1311.5,81.5C 936.833,81.5 562.167,81.5 187.5,81.5 Z"/></g>
<g><path style="opacity:1" fill="#000000" d="M 187.5,81.5 C 562.167,81.5 936.833,81.5 1311.5,81.5C 1311.5,93.1667 1311.5,104.833 1311.5,116.5C 1297.32,116.171 1283.32,116.504 1269.5,117.5C 1264.02,189.819 1248.85,260.152 1224,328.5C 1181.59,449.383 1117.93,557.049 1033,651.5C 1031.67,830.132 1031.01,1008.8 1031,1187.5C 1030,1189.5 1029,1191.5 1028,1193.5C 1008.14,1213.03 988.638,1232.86 969.5,1253C 966.661,1254.92 963.661,1256.59 960.5,1258C 953.508,1258.5 946.508,1258.67 939.5,1258.5C 939.5,1282.83 939.5,1307.17 939.5,1331.5C 946.5,1331.5 953.5,1331.5 960.5,1331.5C 960.5,1360.5 960.5,1389.5 960.5,1418.5C 916.167,1418.5 871.833,1418.5 827.5,1418.5C 827.5,1389.83 827.5,1361.17 827.5,1332.5C 834.833,1332.5 842.167,1332.5 849.5,1332.5C 849.5,1307.83 849.5,1283.17 849.5,1258.5C 796.5,1258.5 743.5,1258.5 690.5,1258.5C 690.5,1282.83 690.5,1307.17 690.5,1331.5C 697.833,1331.5 705.167,1331.5 712.5,1331.5C 712.5,1360.5 712.5,1389.5 712.5,1418.5C 667.5,1418.5 622.5,1418.5 577.5,1418.5C 577.5,1389.83 577.5,1361.17 577.5,1332.5C 585.154,1331.93 592.821,1331.6 600.5,1331.5C 600.667,1307.83 600.5,1284.16 600,1260.5C 597.659,1258.23 594.992,1257.89 592,1259.5C 584.802,1258.77 578.302,1256.27 572.5,1252C 548.291,1231.46 523.791,1211.29 499,1191.5C 498.138,1189.91 497.471,1188.25 497,1186.5C 496.667,1011.17 496.333,835.833 496,660.5C 494.533,657.734 492.7,655.234 490.5,653C 463.671,635.455 439.837,614.288 419,589.5C 369.934,527.754 330.268,460.087 300,386.5C 264.81,300.409 242.144,211.075 232,118.5C 217.245,117.509 202.412,117.176 187.5,117.5C 187.5,105.5 187.5,93.5 187.5,81.5 Z M 243.5,121.5 C 254.58,211.488 277.08,298.488 311,382.5C 342.628,460.822 385.628,531.822 440,595.5C 457.416,613.601 476.583,629.434 497.5,643C 671.833,643.667 846.167,643.667 1020.5,643C 1021.83,642.333 1023.17,641.667 1024.5,641C 1040.96,624.866 1056.13,607.7 1070,589.5C 1129.92,511.035 1176.92,425.035 1211,331.5C 1235.66,263.528 1250.83,193.528 1256.5,121.5C 918.833,121.5 581.167,121.5 243.5,121.5 Z M 508.5,662.5 C 508.697,834.834 509.03,1007.17 509.5,1179.5C 679.5,1179.5 849.5,1179.5 1019.5,1179.5C 1019.5,1007.17 1019.5,834.833 1019.5,662.5C 849.167,662.5 678.833,662.5 508.5,662.5 Z M 523.5,1197.5 C 541.292,1211.45 558.959,1225.62 576.5,1240C 580.453,1242.81 584.787,1244.81 589.5,1246C 707.004,1246.19 824.504,1246.69 942,1247.5C 950.261,1248.56 957.761,1246.73 964.5,1242C 978.833,1227 993.167,1212 1007.5,1197C 845.999,1196.17 684.666,1196.33 523.5,1197.5 Z M 613.5,1266.5 C 613.5,1286.83 613.5,1307.17 613.5,1327.5C 634.5,1327.5 655.5,1327.5 676.5,1327.5C 676.5,1307.17 676.5,1286.83 676.5,1266.5C 655.5,1266.5 634.5,1266.5 613.5,1266.5 Z M 590.5,1344.5 C 590.5,1364.83 590.5,1385.17 590.5,1405.5C 626.833,1405.5 663.167,1405.5 699.5,1405.5C 699.5,1385.17 699.5,1364.83 699.5,1344.5C 663.167,1344.5 626.833,1344.5 590.5,1344.5 Z M 839.5,1344.5 C 839.5,1364.83 839.5,1385.17 839.5,1405.5C 875.833,1405.5 912.167,1405.5 948.5,1405.5C 948.5,1385.17 948.5,1364.83 948.5,1344.5C 912.167,1344.5 875.833,1344.5 839.5,1344.5 Z"/></g>
<g><path style="opacity:1" fill="#211e1e" d="M 195.5,89.5 C 564.833,89.5 934.167,89.5 1303.5,89.5C 1303.5,94.8333 1303.5,100.167 1303.5,105.5C 934.167,105.5 564.833,105.5 195.5,105.5C 195.5,100.167 195.5,94.8333 195.5,89.5 Z"/></g>
<g><path style="opacity:1" fill="#908e8e" d="M 199.5,92.5 C 199.5,96.1667 199.5,99.8333 199.5,103.5C 566.5,103.5 933.5,103.5 1300.5,103.5C 1300.5,99.8333 1300.5,96.1667 1300.5,92.5C 1301.48,96.2984 1301.82,100.298 1301.5,104.5C 933.833,104.5 566.167,104.5 198.5,104.5C 198.183,100.298 198.517,96.2984 199.5,92.5 Z"/></g>
<g><path style="opacity:1" fill="#fefffe" d="M 199.5,92.5 C 566.5,92.5 933.5,92.5 1300.5,92.5C 1300.5,96.1667 1300.5,99.8333 1300.5,103.5C 933.5,103.5 566.5,103.5 199.5,103.5C 199.5,99.8333 199.5,96.1667 199.5,92.5 Z"/></g>
<g><path style="opacity:1" fill="#0c0a0b" d="M 195.5,89.5 C 565,88.5002 934.666,88.1668 1304.5,88.5C 1304.5,94.5 1304.5,100.5 1304.5,106.5C 934.666,106.833 565,106.5 195.5,105.5C 564.833,105.5 934.167,105.5 1303.5,105.5C 1303.5,100.167 1303.5,94.8333 1303.5,89.5C 934.167,89.5 564.833,89.5 195.5,89.5 Z"/></g>
<g><path style="opacity:0.864" fill="#211d1e" d="M 238.5,117.5 C 579.167,117.5 919.833,117.5 1260.5,117.5C 1260.04,139.343 1257.87,161.01 1254,182.5C 1222.81,355.345 1149.48,507.012 1034,637.5C 1030.43,642.031 1025.93,645.198 1020.5,647C 846.167,647.667 671.833,647.667 497.5,647C 490.329,643.827 483.663,639.827 477.5,635C 450.276,612.776 426.109,587.609 405,559.5C 338.992,467.46 292.325,366.126 265,255.5C 254.116,209.858 245.283,163.858 238.5,117.5 Z M 243.5,121.5 C 254.58,211.488 277.08,298.488 311,382.5C 342.628,460.822 385.628,531.822 440,595.5C 457.416,613.601 476.583,629.434 497.5,643C 671.833,643.667 846.167,643.667 1020.5,643C 1021.83,642.333 1023.17,641.667 1024.5,641C 1040.96,624.866 1056.13,607.7 1070,589.5C 1129.92,511.035 1176.92,425.035 1211,331.5C 1235.66,263.528 1250.83,193.528 1256.5,121.5C 918.833,121.5 581.167,121.5 243.5,121.5 Z"/></g>
<g><path style="opacity:1" fill="#171515" d="M 1023.5,659.5 C 850.833,659.5 678.167,659.5 505.5,659.5C 505.5,757.833 505.5,856.167 505.5,954.5C 504.501,856.001 504.167,757.335 504.5,658.5C 677.667,658.167 850.667,658.5 1023.5,659.5 Z"/></g>
<g><path style="opacity:0.857" fill="#211e1e" d="M 1023.5,659.5 C 1023.5,834.167 1023.5,1008.83 1023.5,1183.5C 850.833,1183.5 678.167,1183.5 505.5,1183.5C 505.5,1107.17 505.5,1030.83 505.5,954.5C 505.5,856.167 505.5,757.833 505.5,659.5C 678.167,659.5 850.833,659.5 1023.5,659.5 Z M 508.5,662.5 C 508.697,834.834 509.03,1007.17 509.5,1179.5C 679.5,1179.5 849.5,1179.5 1019.5,1179.5C 1019.5,1007.17 1019.5,834.833 1019.5,662.5C 849.167,662.5 678.833,662.5 508.5,662.5 Z"/></g>
<g><path style="opacity:0.844" fill="#211d1e" d="M 518.5,1192.5 C 684.501,1192.17 850.501,1192.5 1016.5,1193.5C 999.619,1210.21 983.286,1227.38 967.5,1245C 959.417,1250.06 950.584,1252.23 941,1251.5C 823.838,1250.69 706.671,1250.19 589.5,1250C 584.859,1249.18 580.525,1247.51 576.5,1245C 556.311,1228.64 535.977,1212.48 515.5,1196.5C 516.524,1195.15 517.524,1193.81 518.5,1192.5 Z M 523.5,1197.5 C 541.292,1211.45 558.959,1225.62 576.5,1240C 580.453,1242.81 584.787,1244.81 589.5,1246C 707.004,1246.19 824.504,1246.69 942,1247.5C 950.261,1248.56 957.761,1246.73 964.5,1242C 978.833,1227 993.167,1212 1007.5,1197C 845.999,1196.17 684.666,1196.33 523.5,1197.5 Z"/></g>
<g><path style="opacity:1" fill="#242121" d="M 858.5,1262.5 C 882.167,1262.5 905.833,1262.5 929.5,1262.5C 929.5,1285.83 929.5,1309.17 929.5,1332.5C 907.076,1332.98 884.742,1332.48 862.5,1331C 860.951,1329.79 859.785,1328.29 859,1326.5C 858.5,1305.17 858.333,1283.84 858.5,1262.5 Z"/></g>
<g><path style="opacity:0.898" fill="#211d1e" d="M 609.5,1262.5 C 633.167,1262.5 656.833,1262.5 680.5,1262.5C 680.5,1285.5 680.5,1308.5 680.5,1331.5C 656.833,1331.5 633.167,1331.5 609.5,1331.5C 609.5,1308.5 609.5,1285.5 609.5,1262.5 Z M 613.5,1266.5 C 613.5,1286.83 613.5,1307.17 613.5,1327.5C 634.5,1327.5 655.5,1327.5 676.5,1327.5C 676.5,1307.17 676.5,1286.83 676.5,1266.5C 655.5,1266.5 634.5,1266.5 613.5,1266.5 Z"/></g>
<g><path style="opacity:1" fill="#b2b1b1" d="M 925.5,1266.5 C 904.5,1266.5 883.5,1266.5 862.5,1266.5C 862.829,1280.68 862.496,1294.68 861.5,1308.5C 861.5,1294.17 861.5,1279.83 861.5,1265.5C 883.007,1265.17 904.34,1265.5 925.5,1266.5 Z"/></g>
<g><path style="opacity:1" fill="#fefefe" d="M 925.5,1266.5 C 925.5,1287.17 925.5,1307.83 925.5,1328.5C 905.818,1328.5 886.151,1328.67 866.5,1329C 863.898,1328.07 862.398,1326.23 862,1323.5C 861.501,1318.51 861.334,1313.51 861.5,1308.5C 862.496,1294.68 862.829,1280.68 862.5,1266.5C 883.5,1266.5 904.5,1266.5 925.5,1266.5 Z"/></g>
<g><path style="opacity:0.917" fill="#201c1d" d="M 586.5,1340.5 C 625.167,1340.5 663.833,1340.5 702.5,1340.5C 702.5,1363.5 702.5,1386.5 702.5,1409.5C 663.833,1409.5 625.167,1409.5 586.5,1409.5C 586.5,1386.5 586.5,1363.5 586.5,1340.5 Z M 590.5,1344.5 C 590.5,1364.83 590.5,1385.17 590.5,1405.5C 626.833,1405.5 663.167,1405.5 699.5,1405.5C 699.5,1385.17 699.5,1364.83 699.5,1344.5C 663.167,1344.5 626.833,1344.5 590.5,1344.5 Z"/></g>
<g><path style="opacity:0.897" fill="#211e1e" d="M 836.5,1341.5 C 875.167,1341.5 913.833,1341.5 952.5,1341.5C 952.5,1364.17 952.5,1386.83 952.5,1409.5C 913.833,1409.5 875.167,1409.5 836.5,1409.5C 836.5,1386.83 836.5,1364.17 836.5,1341.5 Z M 839.5,1344.5 C 839.5,1364.83 839.5,1385.17 839.5,1405.5C 875.833,1405.5 912.167,1405.5 948.5,1405.5C 948.5,1385.17 948.5,1364.83 948.5,1344.5C 912.167,1344.5 875.833,1344.5 839.5,1344.5 Z"/></g>
</svg>
