<?xml version="1.0" encoding="UTF-8"?>
<!DOCTYPE svg PUBLIC "-//W3C//DTD SVG 1.1//EN" "http://www.w3.org/Graphics/SVG/1.1/DTD/svg11.dtd">
<svg xmlns="http://www.w3.org/2000/svg" version="1.1" width="199px" height="277px" style="shape-rendering:geometricPrecision; text-rendering:geometricPrecision; image-rendering:optimizeQuality; fill-rule:evenodd; clip-rule:evenodd" xmlns:xlink="http://www.w3.org/1999/xlink">
<g><path style="opacity:1" fill="#fefefe" d="M -0.5,-0.5 C 65.8333,-0.5 132.167,-0.5 198.5,-0.5C 198.5,91.8333 198.5,184.167 198.5,276.5C 132.167,276.5 65.8333,276.5 -0.5,276.5C -0.5,184.167 -0.5,91.8333 -0.5,-0.5 Z"/></g>
<g><path style="opacity:1" fill="#040404" d="M 93.5,10.5 C 113.61,11.0359 132.276,16.5359 149.5,27C 159.29,34.6685 163.456,44.8351 162,57.5C 162.135,83.5579 163.301,109.558 165.5,135.5C 163.142,149.503 160.642,163.503 158,177.5C 154.829,184.338 150.495,190.338 145,195.5C 137.667,202.167 130.333,208.833 123,215.5C 116.312,231.22 112.312,247.553 111,264.5C 105.037,275.065 97.5371,276.565 88.5,269C 87.2986,268.097 86.4652,266.931 86,265.5C 85.1552,247.298 80.8219,229.965 73,213.5C 59.5831,203.418 48.2497,191.418 39,177.5C 36.5718,163.303 34.0718,149.136 31.5,135C 33.4582,103.514 35.2915,72.0137 37,40.5C 39.1939,34.9263 42.6939,30.4263 47.5,27C 62.0645,18.9814 77.3978,13.4814 93.5,10.5 Z"/></g>
<g><path style="opacity:1" fill="#fefefe" d="M 94.5,15.5 C 116.236,16.4692 135.736,23.4692 153,36.5C 155.184,39.8662 156.517,43.5328 157,47.5C 157.852,76.1871 159.018,104.854 160.5,133.5C 119.152,134.458 77.8185,133.791 36.5,131.5C 37.9334,101.832 39.4334,72.165 41,42.5C 42.717,37.4514 45.8837,33.618 50.5,31C 64.4257,23.3635 79.0923,18.1968 94.5,15.5 Z"/></g>
<g><path style="opacity:1" fill="#fefefe" d="M 36.5,135.5 C 77.4951,138.347 118.495,139.014 159.5,137.5C 159.833,138 160.167,138.5 160.5,139C 159.391,141.047 158.724,143.213 158.5,145.5C 118.452,146.67 78.4524,145.67 38.5,142.5C 37.0541,140.382 36.3874,138.049 36.5,135.5 Z"/></g>
<g><path style="opacity:1" fill="#fefefe" d="M 38.5,147.5 C 78.7308,149.976 118.731,150.976 158.5,150.5C 157.445,157.83 156.278,165.164 155,172.5C 153.941,175.618 152.608,178.618 151,181.5C 141.798,192.369 131.632,202.202 120.5,211C 107.002,210.271 93.5025,210.438 80,211.5C 66.4045,203.159 54.7378,192.492 45,179.5C 43.4379,177.043 42.4379,174.376 42,171.5C 40.5036,163.525 39.3369,155.525 38.5,147.5 Z"/></g>
<g><path style="opacity:1" fill="#fdfdfd" d="M 95.5,213.5 C 103.201,214.003 110.868,214.836 118.5,216C 114.866,222.737 112.532,229.903 111.5,237.5C 102.833,237.5 94.1667,237.5 85.5,237.5C 84.7301,229.809 82.3968,222.642 78.5,216C 84.2879,215.039 89.9546,214.205 95.5,213.5 Z"/></g>
<g><path style="opacity:1" fill="#f9f9f9" d="M 86.5,243.5 C 88.3035,242.838 90.3035,242.505 92.5,242.5C 98.1693,242.97 103.836,243.47 109.5,244C 101.754,244.798 94.0873,244.631 86.5,243.5 Z"/></g>
<g><path style="opacity:1" fill="#f6f6f6" d="M 88.5,245.5 C 95.5293,245.377 102.529,245.71 109.5,246.5C 109.5,247.5 109.5,248.5 109.5,249.5C 102.167,249.5 94.8333,249.5 87.5,249.5C 87.4326,248.041 87.7659,246.708 88.5,245.5 Z"/></g>
<g><path style="opacity:1" fill="#f9f9f9" d="M 90.5,251.5 C 96.6208,251.09 102.621,251.59 108.5,253C 101.833,253.667 95.1667,253.667 88.5,253C 89.4158,252.722 90.0825,252.222 90.5,251.5 Z"/></g>
<g><path style="opacity:1" fill="#f9f9f9" d="M 94.5,255.5 C 98.8967,255.425 103.23,255.925 107.5,257C 101.167,257.667 94.8333,257.667 88.5,257C 90.7078,256.809 92.7078,256.309 94.5,255.5 Z"/></g>
<g><path style="opacity:1" fill="#fcfcfc" d="M 89.5,265.5 C 95.3188,264.347 101.319,264.181 107.5,265C 101.539,266.829 95.5393,266.996 89.5,265.5 Z"/></g>
<g><path style="opacity:1" fill="#fefefe" d="M 94.5,269.5 C 96.9664,268.366 99.633,268.199 102.5,269C 99.9543,270.812 97.2877,270.978 94.5,269.5 Z"/></g>
</svg>
